<?xml version="1.0" encoding="utf-8"?>
<!-- Generator: Adobe Illustrator 24.0.2, SVG Export Plug-In . SVG Version: 6.00 Build 0)  -->
<svg version="1.1" id="Capa_1" xmlns="http://www.w3.org/2000/svg" xmlns:xlink="http://www.w3.org/1999/xlink" x="0px" y="0px"
	 viewBox="0 0 512 512" style="enable-background:new 0 0 512 512;" xml:space="preserve">
<style type="text/css">
	.st0{display:none;}
	.st1{opacity:0.43;fill:#3C1053;}
	.st2{opacity:0.36;}
	.st3{fill:#3C1053;}
	.st4{fill:#DEFFFE;}
	.st5{fill:#DF6589;}
	.st6{fill:#FFFFFF;}
</style>
<g id="Layer_1">
</g>
<g id="Layer_3" class="st0">
</g>
<g id="Layer_5" class="st0">
</g>
<g id="Layer_4">
	<g>
		<path class="st1" d="M301.7,297.8v23.9c0,16.3-13.2,29.5-29.5,29.5h-97.4c0,0,1,18.3,41.7,18.3s91.3,0,91.3,0s20.9-9.6,22.7-25
			s0.2-52.9,0.2-52.9L301.7,297.8z"/>
		<g class="st2">
			<path class="st3" d="M253.5,116.8c26.6,0,48.2,21.6,48.2,48.2v121.5v11.3h30.8V166.6c0,0-4.1-43-28.3-49.8
				c-24.3-6.8-50.7-4.5-50.7-4.5L253.5,116.8L253.5,116.8z"/>
		</g>
		<rect x="225.4" y="409" class="st4" width="52.3" height="15.4"/>
		<g>
			<path class="st5" d="M251.6,444.4c-2.8,0-5-2.2-5-5s2.2-5,5-5c9,0,17.3-4.8,21.8-12.6c1.4-2.4,4.4-3.2,6.8-1.8
				c2.4,1.4,3.2,4.4,1.8,6.8C275.8,437.7,264.1,444.4,251.6,444.4z"/>
		</g>
		<g>
			<path class="st5" d="M251.6,444.4c-12.5,0-24.2-6.7-30.5-17.6c-1.4-2.4-0.6-5.4,1.8-6.8c2.4-1.4,5.4-0.6,6.8,1.8
				c4.5,7.8,12.9,12.6,21.8,12.6c2.8,0,5,2.2,5,5S254.3,444.4,251.6,444.4z"/>
		</g>
		<g>
			<path class="st3" d="M294.8,414.2h-86.5c-43.2,0-78.3-35.1-78.3-78.3v-22.1c0-7.2,5.8-13,13-13h14.1c2.8,0,5,2.2,5,5s-2.2,5-5,5
				H143c-1.7,0-3,1.3-3,3v22.1c0,37.7,30.6,68.3,68.3,68.3h86.5c37.7,0,68.3-30.6,68.3-68.3v-22.1c0-1.7-1.3-3-3-3H346
				c-2.8,0-5-2.2-5-5s2.2-5,5-5h14.1c7.2,0,13,5.8,13,13v22.1C373.1,379.1,338,414.2,294.8,414.2z"/>
		</g>
		<g>
			<path class="st3" d="M208.9,188.5h-36.6c-2.8,0-5-2.2-5-5s2.2-5,5-5h36.6c6.5,0,11.8-5.3,11.8-11.8c0-6.5-5.3-11.8-11.8-11.8
				h-34.4c-2.8,0-5-2.2-5-5s2.2-5,5-5h34.4c12,0,21.8,9.8,21.8,21.8C230.7,178.7,220.9,188.5,208.9,188.5z"/>
		</g>
		<g>
			<path class="st3" d="M330.8,188.5h-36.6c-12,0-21.8-9.8-21.8-21.8s9.8-21.8,21.8-21.8h34.4c2.8,0,5,2.2,5,5s-2.2,5-5,5h-34.4
				c-6.5,0-11.8,5.3-11.8,11.8c0,6.5,5.3,11.8,11.8,11.8h36.6c2.8,0,5,2.2,5,5S333.6,188.5,330.8,188.5z"/>
		</g>
		<g>
			<path class="st3" d="M330.8,258.5h-36.6c-12,0-21.8-9.8-21.8-21.8s9.8-21.8,21.8-21.8h36.6c2.8,0,5,2.2,5,5s-2.2,5-5,5h-36.6
				c-6.5,0-11.8,5.3-11.8,11.8c0,6.5,5.3,11.8,11.8,11.8h36.6c2.8,0,5,2.2,5,5C335.8,256.2,333.6,258.5,330.8,258.5z"/>
		</g>
		<g>
			<path class="st3" d="M208.9,258.5h-36.6c-2.8,0-5-2.2-5-5s2.2-5,5-5h36.6c6.5,0,11.8-5.3,11.8-11.8c0-6.5-5.3-11.8-11.8-11.8
				h-36.6c-2.8,0-5-2.2-5-5s2.2-5,5-5h36.6c12,0,21.8,9.8,21.8,21.8C230.7,248.7,220.9,258.5,208.9,258.5z"/>
		</g>
		<g>
			<g>
				<path class="st5" d="M298.8,375.9h-94.6c-20.4,0-37-16.6-37-37v-14.8c0-2.8,2.2-5,5-5s5,2.2,5,5v14.8c0,14.9,12.1,27,27,27h94.6
					c14.9,0,27-12.1,27-27v-14.8c0-2.8,2.2-5,5-5s5,2.2,5,5v14.8C335.8,359.3,319.2,375.9,298.8,375.9z"/>
			</g>
			<g>
				<path class="st5" d="M330.8,291.6c-2.8,0-5-2.2-5-5V165c0-26.6-21.6-48.2-48.2-48.2h-52.1c-26.6,0-48.2,21.6-48.2,48.2v121.5
					c0,2.8-2.2,5-5,5s-5-2.2-5-5V165c0-32.1,26.1-58.2,58.2-58.2h52.1c32.1,0,58.2,26.1,58.2,58.2v121.5
					C335.8,289.3,333.6,291.6,330.8,291.6z"/>
			</g>
		</g>
		<path class="st3" d="M487.6,146.7H382c-11.6,0-21,9.4-21,21v66.7c0,5.5,2.1,10.7,6,14.6v10c0,3.6,2,6.8,5.2,8.3
			c1.3,0.7,2.7,1,4.2,1c2,0,4-0.6,5.6-1.9l14.6-11h91c11.6,0,21-9.4,21-21v-66.7C508.6,156.1,499.1,146.7,487.6,146.7z"/>
		<path class="st5" d="M346,282.6H157.1c-2.8,0-5,2.2-5,5v36.5c0,2.8,2.2,5,5,5H346c2.8,0,5-2.2,5-5v-36.5
			C351,284.8,348.8,282.6,346,282.6z"/>
		<g>
			<path class="st3" d="M325.6,507H177.5c-2.8,0-5-2.2-5-5c0-20.1,34-35.2,79-35.2s79,15.1,79,35.2C330.6,504.8,328.4,507,325.6,507
				z"/>
		</g>
		<g>
			<path class="st5" d="M251.6,460.6c-2.8,0-5-2.2-5-5v-16.2c0-2.8,2.2-5,5-5s5,2.2,5,5v16.2C256.6,458.4,254.3,460.6,251.6,460.6z"
				/>
		</g>
		<g>
			<g>
				<path class="st6" d="M466.4,188.5h-66.3c-2.8,0-5-2.2-5-5s2.2-5,5-5h66.3c2.8,0,5,2.2,5,5S469.2,188.5,466.4,188.5z"/>
			</g>
			<g>
				<path class="st6" d="M466.4,220h-12.9c-2.8,0-5-2.2-5-5s2.2-5,5-5h12.9c2.8,0,5,2.2,5,5S469.2,220,466.4,220z"/>
			</g>
			<g>
				<path class="st6" d="M424.7,220h-24.7c-2.8,0-5-2.2-5-5s2.2-5,5-5h24.7c2.8,0,5,2.2,5,5S427.5,220,424.7,220z"/>
			</g>
		</g>
		<path class="st5" d="M34,76.1h105.7c11.6,0,21,8.7,21,19.4v61.6c0,5.1-2.1,9.9-6,13.5v9.2c0,3.3-2,6.2-5.2,7.7
			c-1.3,0.6-2.7,0.9-4.2,0.9c-2,0-4-0.6-5.6-1.8l-14.6-10.2H34c-11.6,0-21-8.7-21-19.4V95.5C13,84.8,22.4,76.1,34,76.1z"/>
		<g>
			<g>
				<path class="st6" d="M120,116.8H53.7c-2.8,0-5-2.2-5-5s2.2-5,5-5H120c2.8,0,5,2.2,5,5S122.8,116.8,120,116.8z"/>
			</g>
			<g>
				<path class="st6" d="M136.4,148.4h-12.9c-2.8,0-5-2.2-5-5s2.2-5,5-5h12.9c2.8,0,5,2.2,5,5S139.2,148.4,136.4,148.4z"/>
			</g>
			<g>
				<path class="st6" d="M103.9,148.4H37.5c-2.8,0-5-2.2-5-5s2.2-5,5-5h66.3c2.8,0,5,2.2,5,5S106.6,148.4,103.9,148.4z"/>
			</g>
		</g>
	</g>
</g>
</svg>
